<svg xmlns="http://www.w3.org/2000/svg" viewBox="0 0 315.97 445.22"><path d="M154.66,166.91c1.17,0,2.37,0,3.57-.1,12.4-.7,21.58-4.82,20.5-9.21-1-4-10-6.78-20.82-6.78-1.17,0-2.37,0-3.57.1-12.4.7-21.58,4.82-20.5,9.2C134.81,164.08,143.8,166.91,154.66,166.91Z"/><path d="M61.8,178.41a36.12,36.12,0,1,0-35.47-36.15A36.15,36.15,0,0,0,61.8,178.41Z"/><path d="M313.93,222.59a29,29,0,0,0-37.53-16.32l-14.24,5.61h-56v-7l72.57-4.4,12.64-.77L290.58,187a125.6,125.6,0,0,0-56.71-97.6l17.6-57.3a18.39,18.39,0,0,0-12.36-23,18.69,18.69,0,0,0-5.31-.77,18.47,18.47,0,0,0-17.67,13L200,73.86A124,124,0,0,0,181.57,70l.09-51.27A18.73,18.73,0,0,0,163,0h0a18.74,18.74,0,0,0-18.71,18.68l-.09,52a126.06,126.06,0,0,0-15.54,3.62L117.32,29.41A18.44,18.44,0,0,0,99.4,15.48,18.83,18.83,0,0,0,95,16a18.39,18.39,0,0,0-13.5,22.34l13.13,52.2c-.93.63-1.85,1.27-2.76,1.93a57.12,57.12,0,0,0-39.4-7.22C9.83,92.94-9.74,142.73,16.28,177.19a6.62,6.62,0,0,1,1.28,3.75c0,3.62,0,7.25,0,10.87A25,25,0,0,0,0,215.61v70.71a25,25,0,0,0,24.92,24.93h0a24.78,24.78,0,0,0,14.9-4.94v36.32A48.23,48.23,0,0,0,52,374.44a54.27,54.27,0,0,0,25,15.89v18.26c0,20.2,17.54,36.63,39.1,36.63s39.1-16.43,39.1-36.63V392.77h22.56v15.82c0,20.2,17.54,36.63,39.1,36.63S256,428.79,256,408.59V390.84c21.26-5.82,36.19-24.1,36.19-45.23V262.28l5.47-2.15a28.94,28.94,0,0,0,16.31-37.54Zm-83.9,2L206.13,234v-9.42Zm-49.65,20.7H130.27v-53.4h62.36v47.44l-5.42,2.13A29.33,29.33,0,0,0,180.38,245.25Zm-86.63-210a5.74,5.74,0,0,1,4.25-7,5.64,5.64,0,0,1,1.4-.17A5.8,5.8,0,0,1,105,32.5l14.73,58.55a112.71,112.71,0,0,1,37-9.12l.11-63.23a6.06,6.06,0,0,1,6-6h0a6.05,6.05,0,0,1,6,6.06l-.11,63a112.46,112.46,0,0,1,39.37,8.47l20-65.06a5.83,5.83,0,0,1,7.25-3.82h0a5.72,5.72,0,0,1,3.87,7.15L218.85,95.2a113,113,0,0,1,59.09,92.6l-71.81,4.35c0-2.14,0-4.28,0-6.42,0-4.79-2.6-7.47-7.35-7.48q-37.36,0-74.73,0c-4.75,0-7.33,2.68-7.35,7.48,0,2.91,0,5.82,0,8.81h-9.37c0-.78-.11-1.45-.12-2.13,0-3.85-.1-7.7.05-11.55a6.87,6.87,0,0,1,1.22-3.59c.69-.94,1.34-1.88,2-2.84A15.66,15.66,0,0,0,120,147.51a60.27,60.27,0,0,0-.51-14.2,57.11,57.11,0,0,0-17.06-32.77c2.18-1.45,4.4-2.83,6.68-4.13Zm13.63,175.56,9.21-.56v18.62h-9.21ZM62.33,97.9c24-.26,44.22,19.65,44.42,43.8a44.34,44.34,0,0,1-44,45C38.59,187,18.3,167.17,18,143.14A44.47,44.47,0,0,1,62.33,97.9ZM39.21,272.3c-5.68,0-8.16-2.5-8.16-8.2V191.2c3.78,1.77,7.39,3.4,10.91,5.2.49.25.77,1.36.77,2.07,0,13.08,0,26.16.06,39.24A30.28,30.28,0,0,0,43.5,245a19.51,19.51,0,0,0,21.33,14.4c10-1.21,17.21-9.53,17.28-20.21q.12-19.83,0-39.66c0-2.09.47-3.18,2.56-4,3-1.15,5.88-2.81,9.13-4.41v2.31q0,35.35,0,70.72c0,5.71-2.46,8.15-8.19,8.15Zm17-72.3H68.55a12.7,12.7,0,0,1,.14,1.41c0,12.57,0,25.16,0,37.74,0,3.89-2.29,6.59-5.65,6.86a6.05,6.05,0,0,1-6.81-6.23c-.06-8.45,0-16.91,0-25.37ZM33.6,295a12.22,12.22,0,0,1-8.67,3.59h0a12.28,12.28,0,0,1-12.26-12.27V215.61a12.24,12.24,0,0,1,4.92-9.8q0,29.25,0,58.48c0,12.23,7.73,20.55,19.57,21.36v.68A12.22,12.22,0,0,1,33.6,295Zm245.89,50.61c0,16.63-13,30.89-30.91,33.91l-5.28.89v28.18c0,13.22-11.86,24-26.44,24s-26.44-10.75-26.44-24V380.1H142.54v28.49c0,13.22-11.86,24-26.44,24s-26.44-10.75-26.44-24V380.23l-5.07-1C66,375.42,52.49,360,52.49,342.63v-56.9q16.7,0,33.39,0c12.79,0,21.28-8.53,21.32-21.34,0-6.51,0-13,0-19.52,0-.75.07-1.49.11-2.32h9.38c0,2.95,0,5.81,0,8.66,0,4.92,2.59,7.64,7.44,7.64q23.17,0,46.36,0a28.78,28.78,0,0,0,.39,20.1h0a28.9,28.9,0,0,0,37.54,16.31l71.06-28Zm22.45-105.92a16.23,16.23,0,0,1-9,8.66l-89.2,35.14a16.28,16.28,0,0,1-21.11-9.17h0a16.3,16.3,0,0,1,9.18-21.12L281,218.05a16.29,16.29,0,0,1,20.9,21.64Z"/></svg>